HIERARCHY
ROOT root
{
	OFFSET 0.000000 0.000000 0.000000
	CHANNELS 6 Xposition Yposition Zposition Zrotation Yrotation Xrotation
	JOINT lhip
	{
		OFFSET 0.058581 -0.082280 -0.017664
		CHANNELS 3 Zrotation Yrotation Xrotation
		JOINT lknee
		{
			OFFSET 0.043451 -0.386469 0.008037
			CHANNELS 3 Zrotation Yrotation Xrotation
			JOINT lankle
			{
				OFFSET -0.014790 -0.426874 -0.037428
				CHANNELS 3 Zrotation Yrotation Xrotation
				JOINT ltoe
				{
					OFFSET 0.041054 -0.060286 0.122042
					CHANNELS 3 Zrotation Yrotation Xrotation
					End Site
					{
						OFFSET 0.000000 0.000000 0.000000
					}
				}
			}
		}
	}
	JOINT rhip
	{
		OFFSET -0.060310 -0.090513 -0.013543
		CHANNELS 3 Zrotation Yrotation Xrotation
		JOINT rknee
		{
			OFFSET -0.043257 -0.383688 -0.004843
			CHANNELS 3 Zrotation Yrotation Xrotation
			JOINT rankle
			{
				OFFSET 0.019056 -0.420046 -0.034562
				CHANNELS 3 Zrotation Yrotation Xrotation
				JOINT rtoe
				{
					OFFSET -0.034840 -0.062106 0.130323
					CHANNELS 3 Zrotation Yrotation Xrotation
					End Site
					{
						OFFSET 0.000000 0.000000 0.000000
					}
				}
			}
		}
	}
	JOINT lowerback
	{
		OFFSET 0.004439 0.124404 -0.038385
		CHANNELS 3 Zrotation Yrotation Xrotation
		JOINT upperback
		{
			OFFSET 0.004488 0.137956 0.026820
			CHANNELS 3 Zrotation Yrotation Xrotation
			JOINT chest
			{
				OFFSET -0.002265 0.056032 0.002855
				CHANNELS 3 Zrotation Yrotation Xrotation
				JOINT lowerneck
				{
					OFFSET -0.013390 0.211636 -0.033468
					CHANNELS 3 Zrotation Yrotation Xrotation
					JOINT upperneck
					{
						OFFSET 0.010113 0.088937 0.050410
						CHANNELS 3 Zrotation Yrotation Xrotation
						End Site
						{
							OFFSET 0.000000 0.000000 0.000000
						}
					}
				}
				JOINT lclavicle
				{
					OFFSET 0.071702 0.114000 -0.018898
					CHANNELS 3 Zrotation Yrotation Xrotation
					JOINT lshoulder
					{
						OFFSET 0.122921 0.045205 -0.019046
						CHANNELS 3 Zrotation Yrotation Xrotation
						JOINT lelbow
						{
							OFFSET 0.255332 -0.015649 -0.022946
							CHANNELS 3 Zrotation Yrotation Xrotation
							JOINT lwrist
							{
								OFFSET 0.265709 0.012698 -0.007375
								CHANNELS 3 Zrotation Yrotation Xrotation
								End Site
								{
									OFFSET 0.000000 0.000000 0.000000
								}
							}
						}
					}
				}
				JOINT rclavicle
				{
					OFFSET -0.082954 0.112472 -0.023707
					CHANNELS 3 Zrotation Yrotation Xrotation
					JOINT rshoulder
					{
						OFFSET -0.113228 0.046853 -0.008472
						CHANNELS 3 Zrotation Yrotation Xrotation
						JOINT relbow
						{
							OFFSET -0.260127 -0.014369 -0.031269
							CHANNELS 3 Zrotation Yrotation Xrotation
							JOINT rwrist
							{
								OFFSET -0.269108 0.006794 -0.006027
								CHANNELS 3 Zrotation Yrotation Xrotation
								End Site
								{
									OFFSET 0.000000 0.000000 0.000000
								}
							}
						}
					}
				}
			}
		}
	}
}
MOTION
Frames: 17
Frame Time: 0.033333
0.073021 0.838266 0.992752 5.441339 -0.057243 91.516557 0.193969 4.095394 -13.642709 -2.948376 5.873304 13.943361 5.631043 21.642403 -12.240570 0.000000 -0.000000 0.000000 -5.758463 -9.205501 -20.236634 0.170871 -11.913991 28.186095 1.079765 -24.448950 -8.161230 0.000000 -0.000000 0.000000 -2.453807 0.536241 9.663773 1.381853 -3.599230 -4.721569 1.639267 0.551572 -2.677123 -4.419999 1.466322 9.776297 3.891988 2.598705 -8.960867 7.846673 -1.177005 -11.427130 -2.017288 -11.298183 -1.819727 -11.284738 -62.912212 11.079960 -20.688272 -6.054312 7.741478 -7.795514 7.980712 -10.084397 6.315834 15.674072 -2.150547 24.038396 62.632031 20.541300 18.695185 13.409183 -12.574527 
0.067443 0.837055 0.991706 5.305761 -0.105053 91.404527 1.090389 4.837379 -14.482592 -3.751194 5.971929 16.154669 4.799247 21.399493 -12.930239 0.000000 -0.000000 0.000000 -5.717141 -9.554281 -20.164018 0.748884 -11.823983 28.550399 1.343515 -24.408371 -9.073055 0.000000 -0.000000 0.000000 -2.199139 0.534869 10.094969 1.188150 -3.347706 -5.041485 1.448740 0.619797 -2.420719 -4.198079 1.513674 9.987737 4.063987 2.334142 -9.721096 7.904629 0.319791 -10.896004 -1.660176 -9.639150 -1.681977 -7.759326 -54.498580 10.494971 -23.095263 -5.908780 10.121702 -7.521291 6.770240 -9.573590 5.403414 14.748199 -2.894297 18.433960 54.661245 19.450543 20.317807 11.810171 -4.822251 
0.061336 0.836278 0.989640 5.173128 -0.217848 91.252541 2.414190 5.757807 -15.906986 -5.088701 6.649587 19.704711 3.873580 20.601075 -13.980403 0.000000 -0.000000 0.000000 -5.783117 -10.151407 -20.225553 1.271195 -12.030760 29.396158 1.314469 -23.933586 -10.318082 0.000000 -0.000000 0.000000 -2.160181 0.625800 10.879577 0.997533 -3.115905 -5.953690 1.393981 0.656452 -1.797778 -3.582359 1.752958 10.002268 3.917792 1.707338 -10.451663 8.121802 1.824942 -10.515229 -2.002524 -8.560055 -2.590632 -5.832048 -46.663975 9.473916 -25.486862 -5.059608 12.960675 -7.166248 5.580122 -9.007270 4.852522 13.874068 -4.206944 15.129359 48.149257 20.292826 22.188256 9.815154 3.214082 
0.053758 0.835132 0.983996 5.027212 -0.367340 90.796537 4.628850 7.496261 -17.915455 -7.342642 7.838282 25.432038 2.419890 18.592670 -15.480349 0.000000 -0.000000 0.000000 -6.185035 -10.984421 -20.621675 2.170247 -12.378117 31.733882 1.158446 -23.235648 -12.436021 0.000000 -0.000000 0.000000 -2.331021 0.713120 12.297930 0.840248 -2.758131 -7.135893 1.476590 0.549022 -1.116886 -2.551641 2.307020 9.914954 3.365250 0.684199 -11.416660 8.346197 3.720053 -10.432771 -2.555913 -7.748602 -3.409158 -3.811758 -39.191595 8.695972 -27.546211 -3.367287 16.578051 -6.975198 4.226952 -8.830751 4.747284 13.120995 -4.849359 12.659702 41.785998 20.377087 23.919205 8.625284 6.731015 
0.049616 0.834227 0.979161 4.984146 -0.401440 90.375721 6.195119 8.592492 -19.094546 -8.685638 8.582778 29.290766 1.281001 17.150800 -16.550936 0.000000 -0.000000 0.000000 -6.470546 -11.482448 -20.950507 2.618343 -12.713284 33.676967 1.102524 -22.723700 -13.869786 0.000000 -0.000000 0.000000 -2.468031 0.731156 13.310216 0.846857 -2.573842 -7.890238 1.541425 0.492194 -0.743633 -1.940405 2.711090 9.972398 3.018345 0.070365 -11.847613 8.531106 4.782035 -10.244594 -2.899207 -7.517037 -3.894423 -2.892759 -35.934467 8.614840 -28.629780 -2.467390 18.536359 -6.750087 3.498020 -8.603356 4.622606 12.826544 -5.395441 11.505419 39.151243 21.356870 24.542777 7.631232 9.684366 
0.044833 0.832577 0.971731 5.004383 -0.344115 89.729285 8.346156 9.824083 -20.559319 -9.959308 9.474530 34.385732 -0.118101 15.932335 -18.345140 0.000000 -0.000000 0.000000 -6.830164 -12.084438 -21.360644 3.061426 -13.296581 36.521757 1.081331 -22.056733 -15.855173 0.000000 -0.000000 0.000000 -2.688162 0.770662 14.536140 1.004893 -2.435826 -8.689408 1.690156 0.399591 -0.346164 -1.237230 3.221043 10.239203 2.614350 -0.639855 -12.354901 8.779989 6.030574 -9.745544 -3.348651 -7.238197 -4.675050 -2.123023 -33.084443 8.419691 -29.886009 -1.680003 20.272952 -6.403194 2.759210 -8.150740 4.410367 12.473184 -6.095745 10.170901 36.552769 23.390239 25.011462 6.270178 13.830169 
0.041170 0.830520 0.963588 5.152281 -0.131614 89.153384 10.168293 10.844099 -21.821024 -9.035387 11.147853 38.552972 0.026492 17.680705 -19.871327 0.000000 -0.000000 0.000000 -7.103659 -12.550843 -21.844618 3.467610 -13.875424 39.514633 1.130242 -21.688557 -17.929668 0.000000 -0.000000 0.000000 -2.819226 0.890835 15.260745 1.273564 -2.427514 -8.956285 1.867859 0.284949 -0.141926 -0.675339 3.498775 10.360544 2.305219 -1.241375 -12.498404 8.999520 6.838660 -9.272996 -3.772691 -6.905844 -5.457707 -2.058722 -31.575513 8.557838 -30.791330 -0.984634 21.101777 -6.191176 2.298433 -7.844575 4.499577 12.025950 -6.470126 9.095104 34.332337 24.373300 25.483832 5.302822 15.884194 
0.038796 0.828073 0.954987 5.372105 0.237310 88.580879 11.671285 11.777942 -22.414833 -6.078930 13.205638 40.991327 1.126649 21.265594 -20.609273 0.000000 -0.000000 0.000000 -7.228589 -12.807742 -22.350492 3.684700 -14.402107 42.631291 1.345307 -21.534009 -20.001952 0.000000 -0.000000 0.000000 -2.759948 1.015575 15.704074 1.556137 -2.405963 -9.009886 2.026809 0.124390 0.028812 -0.210212 3.636169 10.299008 2.130392 -1.836688 -12.318021 9.173679 7.252265 -8.984955 -4.425433 -6.670929 -6.175692 -2.059912 -30.520602 8.768535 -31.182253 -0.682135 21.551844 -6.049150 1.935899 -7.738803 4.950954 11.558211 -6.639224 8.165569 32.420073 24.512663 25.892025 4.710796 16.743154 
0.038038 0.825300 0.945603 5.675161 0.506603 87.998820 12.745179 12.335044 -22.376553 -5.027181 13.453479 41.956088 1.644312 22.539094 -20.799327 0.000000 -0.000000 0.000000 -7.529064 -13.069540 -22.994020 3.691706 -14.872033 46.095877 1.601750 -21.471398 -22.048738 0.000000 -0.000000 0.000000 -2.715559 0.930213 16.194689 1.748898 -2.321257 -9.297474 2.160808 -0.077817 0.231875 0.033348 3.573267 10.328801 2.181242 -2.128352 -12.307580 9.197484 7.383891 -8.664088 -4.970708 -6.474944 -6.694637 -1.854788 -29.500618 8.837623 -30.964796 -0.709048 22.086072 -5.870856 1.663135 -7.499371 5.305365 11.132170 -6.838716 7.623026 31.032687 25.205216 25.902351 4.293942 17.763965 
0.039242 0.821630 0.931951 6.063200 0.774058 87.357448 13.581839 12.971230 -22.571091 -5.222670 13.187680 44.375500 1.849949 22.772503 -22.868279 0.000000 -0.000000 0.000000 -8.214699 -13.573052 -23.946285 3.581526 -15.555275 50.724819 1.895446 -21.285322 -24.707984 0.000000 -0.000000 0.000000 -2.621134 0.586180 16.686508 1.956089 -2.302773 -9.625394 2.228362 -0.235513 0.448910 0.352813 3.390691 10.171381 2.236539 -2.410132 -12.514372 9.199456 7.615309 -8.290970 -5.324920 -6.294012 -7.098845 -1.831366 -28.615195 9.420416 -30.909051 -0.406607 23.161089 -5.703430 1.418380 -7.266904 5.574488 10.638700 -7.156302 7.346211 29.960289 25.858020 26.003852 4.179622 18.137733 
0.041172 0.818816 0.920092 6.331606 1.019780 86.799053 14.336734 13.862918 -23.340510 -5.182672 13.493408 47.673080 1.861596 22.507145 -24.889893 0.000000 -0.000000 0.000000 -8.824176 -14.151691 -24.512549 3.383400 -16.043492 54.174217 2.040460 -20.937860 -26.576708 0.000000 -0.000000 0.000000 -2.514929 0.303595 17.101045 2.164026 -2.330044 -9.846984 2.248843 -0.348828 0.780838 0.754477 3.295031 9.705352 1.954105 -2.866473 -12.503865 9.149726 8.039089 -8.261295 -5.740738 -6.296554 -7.210017 -1.783572 -28.337558 9.694110 -30.714887 -0.401249 23.788082 -5.505786 1.128095 -7.478178 5.756308 10.421132 -7.277992 7.185367 29.372908 25.603124 25.950370 4.441675 17.646012 
0.043720 0.815824 0.909079 6.537094 1.137957 86.217502 15.240869 14.820331 -23.932906 -5.700456 13.813733 50.718723 1.773521 22.075030 -26.472419 0.000000 -0.000000 0.000000 -9.645280 -14.907839 -24.871110 3.257069 -16.426168 57.325318 2.201843 -20.492956 -28.121083 0.000000 -0.000000 0.000000 -2.469397 0.155020 17.494566 2.297577 -2.336931 -10.006889 2.218512 -0.473617 0.941693 1.125180 3.199550 9.404703 1.640747 -3.323696 -12.285319 8.908663 8.411854 -8.081391 -6.018334 -6.321244 -7.249661 -2.010224 -28.677812 9.938668 -30.406702 -0.680123 24.075136 -5.182866 0.861982 -7.529033 5.918269 10.104044 -7.445233 7.120310 28.958054 25.244570 25.827402 4.781071 17.010680 
0.046890 0.812241 0.899609 6.539125 1.164162 85.788040 16.049560 15.951984 -24.047168 -6.332619 14.208845 53.154574 1.712158 21.471248 -28.311102 0.000000 -0.000000 0.000000 -10.652154 -15.777377 -25.072735 3.195624 -16.832624 60.062018 2.407617 -19.690662 -29.525952 0.000000 -0.000000 0.000000 -2.360734 0.066293 17.583435 2.311168 -2.269383 -10.057830 2.083804 -0.489429 0.820965 1.386054 3.189720 9.536937 1.388402 -3.747219 -12.097605 8.626395 8.661070 -7.855652 -6.427921 -6.510161 -7.247616 -2.017216 -28.827844 9.815299 -30.187826 -1.055058 24.117755 -4.855449 0.654506 -7.389028 6.097891 9.666928 -7.680866 7.219932 28.596049 24.919333 25.749368 5.238154 16.405504 
0.050177 0.808022 0.891719 6.365783 1.292247 85.466757 17.004561 17.292040 -23.931878 -6.817267 14.814808 55.285865 1.612521 20.723619 -29.987317 0.000000 -0.000000 0.000000 -11.561124 -16.555591 -25.091760 3.206834 -17.228188 62.295152 2.639930 -18.692778 -30.644599 0.000000 -0.000000 0.000000 -2.136607 -0.051849 17.471844 2.338022 -2.102572 -10.264077 1.961077 -0.443319 0.770143 1.577022 3.332563 9.884462 0.982954 -4.119738 -11.909649 8.353652 8.788228 -7.794778 -7.004847 -6.728075 -7.192074 -1.730063 -28.203741 9.920076 -29.797485 -1.434048 24.456566 -4.635000 0.442490 -7.341353 6.186345 9.230695 -7.951027 7.537776 28.469234 25.161174 25.458739 5.670513 16.299436 
0.053136 0.803659 0.885075 6.333350 1.441397 85.327264 17.940025 18.387331 -23.890203 -7.326876 15.411795 57.142045 1.444318 20.003132 -31.430464 0.000000 -0.000000 0.000000 -12.388082 -17.371488 -25.167188 3.317465 -17.667929 64.279011 2.893249 -17.879663 -31.520014 0.000000 -0.000000 0.000000 -1.974945 -0.122390 17.236847 2.424094 -2.070722 -10.521748 1.909135 -0.535876 0.596945 1.649725 3.468464 10.281952 0.617352 -4.146459 -11.830400 8.037069 8.817158 -7.543786 -7.038223 -6.582397 -7.268876 -1.830218 -27.610629 10.285809 -29.668997 -1.516786 24.791684 -4.473482 0.264519 -7.148690 5.974657 8.730408 -8.413962 8.156934 28.777407 25.352739 25.352125 6.131604 15.845579 
0.055789 0.799642 0.878932 6.407591 1.434152 85.365455 18.604191 19.228014 -24.006039 -7.857350 16.010262 58.775860 1.357120 19.397269 -32.726895 0.000000 -0.000000 0.000000 -13.340989 -18.309794 -25.380603 3.302744 -18.223342 66.258674 3.092118 -17.079402 -32.280047 0.000000 -0.000000 0.000000 -2.010009 -0.180783 17.002383 2.471484 -2.188202 -10.792789 1.877511 -0.687860 0.300834 1.733763 3.627937 10.485083 0.280649 -3.812808 -11.920750 7.799904 8.996413 -7.183958 -6.659348 -6.203137 -7.415002 -2.084106 -27.548570 10.533074 -29.622436 -1.442199 25.023156 -4.325235 0.002145 -6.881669 5.493701 8.309379 -8.928094 8.993982 29.670469 25.535842 25.563340 6.436969 15.151765 
0.058296 0.795940 0.872684 6.319849 1.417337 85.417085 19.310864 20.245525 -24.131249 -8.211460 16.742204 60.499038 1.239338 18.720750 -33.838418 0.000000 -0.000000 0.000000 -14.350091 -19.309015 -25.665418 3.156338 -18.894568 68.299562 3.309906 -16.191630 -32.823558 0.000000 -0.000000 0.000000 -2.015231 -0.299837 16.883679 2.471223 -2.239528 -11.078016 1.842613 -0.714590 0.065646 1.863877 4.072952 10.588833 -0.190546 -3.326289 -12.367239 7.658348 9.315952 -6.976073 -6.225390 -5.737139 -7.309825 -2.525059 -27.928361 11.382346 -28.962457 -1.832551 25.300600 -4.341241 -0.306238 -6.644624 4.850770 7.868326 -9.340615 10.045255 30.867183 26.116135 25.244697 7.137981 14.477926 
